<mxfile host="app.diagrams.net" modified="2023-08-31T14:01:18.971Z" agent="Mozilla/5.0 (Windows NT 10.0; Win64; x64) AppleWebKit/537.36 (KHTML, like Gecko) Chrome/116.0.0.0 Safari/537.36" etag="VlklpSETLgJ52Em4_IoD" version="21.6.8" type="github">
  <diagram name="Page-1" id="2YBvvXClWsGukQMizWep">
    <mxGraphModel dx="1032" dy="427" grid="1" gridSize="10" guides="1" tooltips="1" connect="1" arrows="1" fold="1" page="1" pageScale="1" pageWidth="850" pageHeight="1100" math="0" shadow="0">
      <root>
        <mxCell id="0" />
        <mxCell id="1" parent="0" />
        <mxCell id="aM9ryv3xv72pqoxQDRHE-1" value="Contractor" style="shape=umlLifeline;perimeter=lifelinePerimeter;whiteSpace=wrap;html=1;container=0;dropTarget=0;collapsible=0;recursiveResize=0;outlineConnect=0;portConstraint=eastwest;newEdgeStyle={&quot;edgeStyle&quot;:&quot;elbowEdgeStyle&quot;,&quot;elbow&quot;:&quot;vertical&quot;,&quot;curved&quot;:0,&quot;rounded&quot;:0};" parent="1" vertex="1">
          <mxGeometry x="40" y="40" width="100" height="580" as="geometry" />
        </mxCell>
        <mxCell id="aM9ryv3xv72pqoxQDRHE-2" value="" style="html=1;points=[];perimeter=orthogonalPerimeter;outlineConnect=0;targetShapes=umlLifeline;portConstraint=eastwest;newEdgeStyle={&quot;edgeStyle&quot;:&quot;elbowEdgeStyle&quot;,&quot;elbow&quot;:&quot;vertical&quot;,&quot;curved&quot;:0,&quot;rounded&quot;:0};" parent="aM9ryv3xv72pqoxQDRHE-1" vertex="1">
          <mxGeometry x="45" y="79" width="10" height="501" as="geometry" />
        </mxCell>
        <mxCell id="aM9ryv3xv72pqoxQDRHE-5" value="Passenger" style="shape=umlLifeline;perimeter=lifelinePerimeter;whiteSpace=wrap;html=1;container=0;dropTarget=0;collapsible=0;recursiveResize=0;outlineConnect=0;portConstraint=eastwest;newEdgeStyle={&quot;edgeStyle&quot;:&quot;elbowEdgeStyle&quot;,&quot;elbow&quot;:&quot;vertical&quot;,&quot;curved&quot;:0,&quot;rounded&quot;:0};size=30;" parent="1" vertex="1">
          <mxGeometry x="429" y="40" width="90" height="580" as="geometry" />
        </mxCell>
        <mxCell id="aM9ryv3xv72pqoxQDRHE-6" value="" style="html=1;points=[];perimeter=orthogonalPerimeter;outlineConnect=0;targetShapes=umlLifeline;portConstraint=eastwest;newEdgeStyle={&quot;edgeStyle&quot;:&quot;elbowEdgeStyle&quot;,&quot;elbow&quot;:&quot;vertical&quot;,&quot;curved&quot;:0,&quot;rounded&quot;:0};" parent="aM9ryv3xv72pqoxQDRHE-5" vertex="1">
          <mxGeometry x="45" y="80" width="10" height="500" as="geometry" />
        </mxCell>
        <mxCell id="vEa5idC1U9GtSrUz8GPb-3" value="System" style="shape=umlLifeline;perimeter=lifelinePerimeter;whiteSpace=wrap;html=1;container=0;dropTarget=0;collapsible=0;recursiveResize=0;outlineConnect=0;portConstraint=eastwest;newEdgeStyle={&quot;edgeStyle&quot;:&quot;elbowEdgeStyle&quot;,&quot;elbow&quot;:&quot;vertical&quot;,&quot;curved&quot;:0,&quot;rounded&quot;:0};" vertex="1" parent="1">
          <mxGeometry x="228" y="41" width="100" height="580" as="geometry" />
        </mxCell>
        <mxCell id="vEa5idC1U9GtSrUz8GPb-4" value="" style="html=1;points=[];perimeter=orthogonalPerimeter;outlineConnect=0;targetShapes=umlLifeline;portConstraint=eastwest;newEdgeStyle={&quot;edgeStyle&quot;:&quot;elbowEdgeStyle&quot;,&quot;elbow&quot;:&quot;vertical&quot;,&quot;curved&quot;:0,&quot;rounded&quot;:0};" vertex="1" parent="vEa5idC1U9GtSrUz8GPb-3">
          <mxGeometry x="45" y="79" width="10" height="501" as="geometry" />
        </mxCell>
        <mxCell id="vEa5idC1U9GtSrUz8GPb-5" value="" style="endArrow=classic;html=1;rounded=0;" edge="1" parent="1" target="vEa5idC1U9GtSrUz8GPb-3">
          <mxGeometry relative="1" as="geometry">
            <mxPoint x="97" y="137" as="sourcePoint" />
            <mxPoint x="197" y="137" as="targetPoint" />
          </mxGeometry>
        </mxCell>
        <mxCell id="vEa5idC1U9GtSrUz8GPb-6" value="Label" style="edgeLabel;resizable=0;html=1;align=center;verticalAlign=middle;" connectable="0" vertex="1" parent="vEa5idC1U9GtSrUz8GPb-5">
          <mxGeometry relative="1" as="geometry" />
        </mxCell>
        <mxCell id="vEa5idC1U9GtSrUz8GPb-7" value="Register" style="edgeLabel;html=1;align=center;verticalAlign=middle;resizable=0;points=[];" vertex="1" connectable="0" parent="vEa5idC1U9GtSrUz8GPb-5">
          <mxGeometry x="0.064" y="-1" relative="1" as="geometry">
            <mxPoint as="offset" />
          </mxGeometry>
        </mxCell>
        <mxCell id="vEa5idC1U9GtSrUz8GPb-8" value="" style="endArrow=classic;html=1;rounded=0;" edge="1" parent="1" source="aM9ryv3xv72pqoxQDRHE-5">
          <mxGeometry relative="1" as="geometry">
            <mxPoint x="388.5" y="159" as="sourcePoint" />
            <mxPoint x="283" y="159" as="targetPoint" />
          </mxGeometry>
        </mxCell>
        <mxCell id="vEa5idC1U9GtSrUz8GPb-9" value="Login" style="edgeLabel;resizable=0;html=1;align=center;verticalAlign=middle;" connectable="0" vertex="1" parent="vEa5idC1U9GtSrUz8GPb-8">
          <mxGeometry relative="1" as="geometry" />
        </mxCell>
        <mxCell id="vEa5idC1U9GtSrUz8GPb-15" value="" style="endArrow=classic;html=1;rounded=0;" edge="1" parent="1">
          <mxGeometry relative="1" as="geometry">
            <mxPoint x="97" y="192" as="sourcePoint" />
            <mxPoint x="277.5" y="192" as="targetPoint" />
          </mxGeometry>
        </mxCell>
        <mxCell id="vEa5idC1U9GtSrUz8GPb-16" value="Scan Barcode" style="edgeLabel;resizable=0;html=1;align=center;verticalAlign=middle;" connectable="0" vertex="1" parent="vEa5idC1U9GtSrUz8GPb-15">
          <mxGeometry relative="1" as="geometry" />
        </mxCell>
        <mxCell id="vEa5idC1U9GtSrUz8GPb-17" value="" style="endArrow=classic;html=1;rounded=0;" edge="1" parent="1">
          <mxGeometry relative="1" as="geometry">
            <mxPoint x="473.5" y="224" as="sourcePoint" />
            <mxPoint x="283.00000000000006" y="224" as="targetPoint" />
          </mxGeometry>
        </mxCell>
        <mxCell id="vEa5idC1U9GtSrUz8GPb-18" value="Generate QR&lt;br&gt;code" style="edgeLabel;resizable=0;html=1;align=center;verticalAlign=middle;" connectable="0" vertex="1" parent="vEa5idC1U9GtSrUz8GPb-17">
          <mxGeometry relative="1" as="geometry" />
        </mxCell>
        <mxCell id="vEa5idC1U9GtSrUz8GPb-19" value="" style="endArrow=classic;html=1;rounded=0;" edge="1" parent="1">
          <mxGeometry relative="1" as="geometry">
            <mxPoint x="95" y="259" as="sourcePoint" />
            <mxPoint x="277.5" y="259" as="targetPoint" />
          </mxGeometry>
        </mxCell>
        <mxCell id="vEa5idC1U9GtSrUz8GPb-20" value="Manual Payment&lt;br&gt;option" style="edgeLabel;resizable=0;html=1;align=center;verticalAlign=middle;" connectable="0" vertex="1" parent="vEa5idC1U9GtSrUz8GPb-19">
          <mxGeometry relative="1" as="geometry">
            <mxPoint y="1" as="offset" />
          </mxGeometry>
        </mxCell>
        <mxCell id="vEa5idC1U9GtSrUz8GPb-21" value="" style="endArrow=classic;html=1;rounded=0;" edge="1" parent="1" source="aM9ryv3xv72pqoxQDRHE-5">
          <mxGeometry relative="1" as="geometry">
            <mxPoint x="388.5" y="294" as="sourcePoint" />
            <mxPoint x="283" y="294" as="targetPoint" />
          </mxGeometry>
        </mxCell>
        <mxCell id="vEa5idC1U9GtSrUz8GPb-22" value="Payment&lt;br&gt;History" style="edgeLabel;resizable=0;html=1;align=center;verticalAlign=middle;" connectable="0" vertex="1" parent="vEa5idC1U9GtSrUz8GPb-21">
          <mxGeometry relative="1" as="geometry">
            <mxPoint as="offset" />
          </mxGeometry>
        </mxCell>
        <mxCell id="vEa5idC1U9GtSrUz8GPb-23" value="" style="endArrow=classic;html=1;rounded=0;" edge="1" parent="1" source="aM9ryv3xv72pqoxQDRHE-5">
          <mxGeometry relative="1" as="geometry">
            <mxPoint x="388.5" y="351" as="sourcePoint" />
            <mxPoint x="283" y="351" as="targetPoint" />
          </mxGeometry>
        </mxCell>
        <mxCell id="vEa5idC1U9GtSrUz8GPb-24" value="Apply Student&lt;br&gt;Discount" style="edgeLabel;resizable=0;html=1;align=center;verticalAlign=middle;" connectable="0" vertex="1" parent="vEa5idC1U9GtSrUz8GPb-23">
          <mxGeometry relative="1" as="geometry" />
        </mxCell>
        <mxCell id="vEa5idC1U9GtSrUz8GPb-27" value="" style="endArrow=classic;html=1;rounded=0;" edge="1" parent="1" source="aM9ryv3xv72pqoxQDRHE-5">
          <mxGeometry relative="1" as="geometry">
            <mxPoint x="388.5" y="399" as="sourcePoint" />
            <mxPoint x="283" y="399" as="targetPoint" />
          </mxGeometry>
        </mxCell>
        <mxCell id="vEa5idC1U9GtSrUz8GPb-28" value="Pay Fare" style="edgeLabel;resizable=0;html=1;align=center;verticalAlign=middle;" connectable="0" vertex="1" parent="vEa5idC1U9GtSrUz8GPb-27">
          <mxGeometry relative="1" as="geometry" />
        </mxCell>
        <mxCell id="vEa5idC1U9GtSrUz8GPb-29" value="" style="endArrow=classic;html=1;rounded=0;" edge="1" parent="1" source="aM9ryv3xv72pqoxQDRHE-5">
          <mxGeometry relative="1" as="geometry">
            <mxPoint x="388.5" y="450" as="sourcePoint" />
            <mxPoint x="283" y="450" as="targetPoint" />
          </mxGeometry>
        </mxCell>
        <mxCell id="vEa5idC1U9GtSrUz8GPb-30" value="Download&lt;br&gt;payment/bill" style="edgeLabel;resizable=0;html=1;align=center;verticalAlign=middle;" connectable="0" vertex="1" parent="vEa5idC1U9GtSrUz8GPb-29">
          <mxGeometry relative="1" as="geometry" />
        </mxCell>
        <mxCell id="vEa5idC1U9GtSrUz8GPb-31" value="" style="endArrow=classic;html=1;rounded=0;" edge="1" parent="1" source="aM9ryv3xv72pqoxQDRHE-5">
          <mxGeometry relative="1" as="geometry">
            <mxPoint x="389.5" y="509" as="sourcePoint" />
            <mxPoint x="284" y="509" as="targetPoint" />
          </mxGeometry>
        </mxCell>
        <mxCell id="vEa5idC1U9GtSrUz8GPb-32" value="View Payment&lt;br&gt;History" style="edgeLabel;resizable=0;html=1;align=center;verticalAlign=middle;" connectable="0" vertex="1" parent="vEa5idC1U9GtSrUz8GPb-31">
          <mxGeometry relative="1" as="geometry" />
        </mxCell>
      </root>
    </mxGraphModel>
  </diagram>
</mxfile>
